<mxfile host="app.diagrams.net" modified="2023-12-15T15:25:55.894Z" agent="Mozilla/5.0 (Windows NT 10.0; Win64; x64) AppleWebKit/537.36 (KHTML, like Gecko) Chrome/119.0.0.0 Safari/537.36" etag="j2JtyeiJr9lASKlkAFWy" version="22.0.0" type="github">
  <diagram name="Страница-1" id="-v5ODeXpBU8rElQv_sJt">
    <mxGraphModel dx="1105" dy="595" grid="1" gridSize="10" guides="1" tooltips="1" connect="1" arrows="1" fold="1" page="1" pageScale="1" pageWidth="827" pageHeight="1169" math="0" shadow="0">
      <root>
        <mxCell id="0" />
        <mxCell id="1" parent="0" />
        <mxCell id="9anmOMK37P7xql9LAdl7-1" value="НАЧАЛО" style="ellipse;whiteSpace=wrap;html=1;" parent="1" vertex="1">
          <mxGeometry x="350" y="20" width="100" height="60" as="geometry" />
        </mxCell>
        <mxCell id="9anmOMK37P7xql9LAdl7-2" value="Вход:&lt;br&gt;a, b, c, multiply&lt;br&gt;&lt;div style=&quot;&quot;&gt;&lt;span style=&quot;background-color: initial;&quot;&gt;masivZaLitsa[5]&lt;/span&gt;&lt;/div&gt;&lt;div style=&quot;&quot;&gt;&lt;span style=&quot;background-color: initial;&quot;&gt;segashnaStoinost = 0&lt;/span&gt;&lt;/div&gt;&lt;div style=&quot;&quot;&gt;&lt;span style=&quot;background-color: initial;&quot;&gt;masivZaStraniteNaTriygylnitsite[15]&lt;/span&gt;&lt;/div&gt;&lt;div style=&quot;&quot;&gt;&lt;span style=&quot;background-color: initial;&quot;&gt;segashnaStoinostNaStranite = 0&lt;/span&gt;&lt;/div&gt;" style="shape=parallelogram;perimeter=parallelogramPerimeter;whiteSpace=wrap;html=1;fixedSize=1;" parent="1" vertex="1">
          <mxGeometry x="280" y="100" width="240" height="90" as="geometry" />
        </mxCell>
        <mxCell id="9anmOMK37P7xql9LAdl7-3" value="" style="endArrow=classic;html=1;rounded=0;exitX=0.5;exitY=1;exitDx=0;exitDy=0;entryX=0.5;entryY=0;entryDx=0;entryDy=0;" parent="1" source="9anmOMK37P7xql9LAdl7-1" target="9anmOMK37P7xql9LAdl7-2" edge="1">
          <mxGeometry width="50" height="50" relative="1" as="geometry">
            <mxPoint x="380" y="320" as="sourcePoint" />
            <mxPoint x="430" y="270" as="targetPoint" />
          </mxGeometry>
        </mxCell>
        <mxCell id="9PRktrJ7VXsiMUp-jzfl-1" value="" style="endArrow=classic;html=1;rounded=0;exitX=0.5;exitY=1;exitDx=0;exitDy=0;entryX=0.5;entryY=0;entryDx=0;entryDy=0;" parent="1" source="9anmOMK37P7xql9LAdl7-2" target="9PRktrJ7VXsiMUp-jzfl-2" edge="1">
          <mxGeometry width="50" height="50" relative="1" as="geometry">
            <mxPoint x="390" y="300" as="sourcePoint" />
            <mxPoint x="440" y="250" as="targetPoint" />
          </mxGeometry>
        </mxCell>
        <mxCell id="9PRktrJ7VXsiMUp-jzfl-2" value="Задава се стойността на a" style="shape=parallelogram;perimeter=parallelogramPerimeter;whiteSpace=wrap;html=1;fixedSize=1;" parent="1" vertex="1">
          <mxGeometry x="307.5" y="220" width="185" height="30" as="geometry" />
        </mxCell>
        <mxCell id="9PRktrJ7VXsiMUp-jzfl-3" value="" style="endArrow=classic;html=1;rounded=0;exitX=0.5;exitY=1;exitDx=0;exitDy=0;entryX=0.5;entryY=0;entryDx=0;entryDy=0;" parent="1" source="9PRktrJ7VXsiMUp-jzfl-2" target="9PRktrJ7VXsiMUp-jzfl-4" edge="1">
          <mxGeometry width="50" height="50" relative="1" as="geometry">
            <mxPoint x="400" y="340" as="sourcePoint" />
            <mxPoint x="450" y="290" as="targetPoint" />
          </mxGeometry>
        </mxCell>
        <mxCell id="9PRktrJ7VXsiMUp-jzfl-4" value="&lt;span style=&quot;color: rgb(0, 0, 0); font-family: Helvetica; font-size: 12px; font-style: normal; font-variant-ligatures: normal; font-variant-caps: normal; font-weight: 400; letter-spacing: normal; orphans: 2; text-align: center; text-indent: 0px; text-transform: none; widows: 2; word-spacing: 0px; -webkit-text-stroke-width: 0px; background-color: rgb(251, 251, 251); text-decoration-thickness: initial; text-decoration-style: initial; text-decoration-color: initial; float: none; display: inline !important;&quot;&gt;segashnaStoinostNaStranite &amp;lt; 15&lt;/span&gt;" style="rhombus;whiteSpace=wrap;html=1;" parent="1" vertex="1">
          <mxGeometry x="291.25" y="280" width="217.5" height="80" as="geometry" />
        </mxCell>
        <mxCell id="9PRktrJ7VXsiMUp-jzfl-5" value="&lt;div style=&quot;margin: 0px; padding: 0px; user-select: text; -webkit-user-drag: none; -webkit-tap-highlight-color: transparent; overflow: visible; cursor: text; clear: both; position: relative; direction: ltr; background-color: rgb(255, 255, 255);&quot; class=&quot;OutlineElement Ltr SCXW58210390 BCX0&quot;&gt;&lt;p style=&quot;margin: 0px 0px 10.6667px; padding: 0px; user-select: text; -webkit-user-drag: none; -webkit-tap-highlight-color: transparent; overflow-wrap: break-word; vertical-align: baseline; font-kerning: none; background-color: transparent; color: windowtext;&quot; class=&quot;Paragraph SCXW58210390 BCX0&quot;&gt;&lt;span style=&quot;font-family: Helvetica; background-color: rgb(251, 251, 251);&quot;&gt;masivZaStraniteNaTriygylnitsite[segashnaStoinostZaStranite&lt;/span&gt;&lt;span style=&quot;background-color: rgb(251, 251, 251);&quot;&gt;&lt;font face=&quot;Segoe UI, Segoe UI Web, Arial, Verdana, sans-serif&quot;&gt;] = a;&lt;/font&gt;&lt;/span&gt;&lt;/p&gt;&lt;p style=&quot;margin: 0px 0px 10.6667px; padding: 0px; user-select: text; -webkit-user-drag: none; -webkit-tap-highlight-color: transparent; overflow-wrap: break-word; vertical-align: baseline; font-kerning: none; background-color: transparent; color: windowtext;&quot; class=&quot;Paragraph SCXW58210390 BCX0&quot;&gt;&lt;span style=&quot;background-color: rgb(251, 251, 251);&quot;&gt;&lt;font face=&quot;Segoe UI, Segoe UI Web, Arial, Verdana, sans-serif&quot;&gt;segashnaStoinostZaStranite++;&lt;/font&gt;&lt;/span&gt;&lt;/p&gt;&lt;/div&gt;" style="rounded=0;whiteSpace=wrap;html=1;align=center;" parent="1" vertex="1">
          <mxGeometry x="220" y="390" width="360" height="90" as="geometry" />
        </mxCell>
        <mxCell id="9PRktrJ7VXsiMUp-jzfl-6" value="" style="endArrow=classic;html=1;rounded=0;exitX=0.5;exitY=1;exitDx=0;exitDy=0;entryX=0.5;entryY=0;entryDx=0;entryDy=0;" parent="1" source="9PRktrJ7VXsiMUp-jzfl-4" target="9PRktrJ7VXsiMUp-jzfl-5" edge="1">
          <mxGeometry width="50" height="50" relative="1" as="geometry">
            <mxPoint x="270" y="400" as="sourcePoint" />
            <mxPoint x="320" y="350" as="targetPoint" />
          </mxGeometry>
        </mxCell>
        <mxCell id="9PRktrJ7VXsiMUp-jzfl-7" value="" style="endArrow=classic;html=1;rounded=0;exitX=0;exitY=0.5;exitDx=0;exitDy=0;" parent="1" source="9PRktrJ7VXsiMUp-jzfl-4" edge="1">
          <mxGeometry width="50" height="50" relative="1" as="geometry">
            <mxPoint x="230" y="300" as="sourcePoint" />
            <mxPoint x="40" y="1410" as="targetPoint" />
            <Array as="points">
              <mxPoint x="40" y="320" />
            </Array>
          </mxGeometry>
        </mxCell>
        <mxCell id="9PRktrJ7VXsiMUp-jzfl-8" value="НЕ" style="text;html=1;strokeColor=none;fillColor=none;align=center;verticalAlign=middle;whiteSpace=wrap;rounded=0;" parent="1" vertex="1">
          <mxGeometry x="231" y="280" width="60" height="30" as="geometry" />
        </mxCell>
        <mxCell id="9PRktrJ7VXsiMUp-jzfl-9" value="ДА" style="text;html=1;strokeColor=none;fillColor=none;align=center;verticalAlign=middle;whiteSpace=wrap;rounded=0;" parent="1" vertex="1">
          <mxGeometry x="340" y="360" width="60" height="30" as="geometry" />
        </mxCell>
        <mxCell id="9PRktrJ7VXsiMUp-jzfl-10" value="Задава се стойността на b" style="shape=parallelogram;perimeter=parallelogramPerimeter;whiteSpace=wrap;html=1;fixedSize=1;" parent="1" vertex="1">
          <mxGeometry x="307.5" y="510" width="185" height="30" as="geometry" />
        </mxCell>
        <mxCell id="9PRktrJ7VXsiMUp-jzfl-11" value="" style="endArrow=classic;html=1;rounded=0;exitX=0.5;exitY=1;exitDx=0;exitDy=0;entryX=0.5;entryY=0;entryDx=0;entryDy=0;" parent="1" source="9PRktrJ7VXsiMUp-jzfl-10" target="9PRktrJ7VXsiMUp-jzfl-12" edge="1">
          <mxGeometry width="50" height="50" relative="1" as="geometry">
            <mxPoint x="400" y="630" as="sourcePoint" />
            <mxPoint x="450" y="580" as="targetPoint" />
          </mxGeometry>
        </mxCell>
        <mxCell id="9PRktrJ7VXsiMUp-jzfl-12" value="&lt;span style=&quot;color: rgb(0, 0, 0); font-family: Helvetica; font-size: 12px; font-style: normal; font-variant-ligatures: normal; font-variant-caps: normal; font-weight: 400; letter-spacing: normal; orphans: 2; text-align: center; text-indent: 0px; text-transform: none; widows: 2; word-spacing: 0px; -webkit-text-stroke-width: 0px; background-color: rgb(251, 251, 251); text-decoration-thickness: initial; text-decoration-style: initial; text-decoration-color: initial; float: none; display: inline !important;&quot;&gt;segashnaStoinostNaStranite &amp;lt; 15&lt;/span&gt;" style="rhombus;whiteSpace=wrap;html=1;" parent="1" vertex="1">
          <mxGeometry x="291.25" y="570" width="217.5" height="80" as="geometry" />
        </mxCell>
        <mxCell id="9PRktrJ7VXsiMUp-jzfl-13" value="&lt;div style=&quot;margin: 0px; padding: 0px; user-select: text; -webkit-user-drag: none; -webkit-tap-highlight-color: transparent; overflow: visible; cursor: text; clear: both; position: relative; direction: ltr; background-color: rgb(255, 255, 255);&quot; class=&quot;OutlineElement Ltr SCXW58210390 BCX0&quot;&gt;&lt;p style=&quot;margin: 0px 0px 10.6667px; padding: 0px; user-select: text; -webkit-user-drag: none; -webkit-tap-highlight-color: transparent; overflow-wrap: break-word; vertical-align: baseline; font-kerning: none; background-color: transparent; color: windowtext;&quot; class=&quot;Paragraph SCXW58210390 BCX0&quot;&gt;&lt;span style=&quot;font-family: Helvetica; background-color: rgb(251, 251, 251);&quot;&gt;masivZaStraniteNaTriygylnitsite[segashnaStoinostZaStranite&lt;/span&gt;&lt;span style=&quot;background-color: rgb(251, 251, 251);&quot;&gt;&lt;font face=&quot;Segoe UI, Segoe UI Web, Arial, Verdana, sans-serif&quot;&gt;] = b;&lt;/font&gt;&lt;/span&gt;&lt;/p&gt;&lt;p style=&quot;margin: 0px 0px 10.6667px; padding: 0px; user-select: text; -webkit-user-drag: none; -webkit-tap-highlight-color: transparent; overflow-wrap: break-word; vertical-align: baseline; font-kerning: none; background-color: transparent; color: windowtext;&quot; class=&quot;Paragraph SCXW58210390 BCX0&quot;&gt;&lt;span style=&quot;background-color: rgb(251, 251, 251);&quot;&gt;&lt;font face=&quot;Segoe UI, Segoe UI Web, Arial, Verdana, sans-serif&quot;&gt;segashnaStoinostZaStranite++;&lt;/font&gt;&lt;/span&gt;&lt;/p&gt;&lt;/div&gt;" style="rounded=0;whiteSpace=wrap;html=1;align=center;" parent="1" vertex="1">
          <mxGeometry x="220" y="680" width="360" height="90" as="geometry" />
        </mxCell>
        <mxCell id="9PRktrJ7VXsiMUp-jzfl-14" value="" style="endArrow=classic;html=1;rounded=0;exitX=0.5;exitY=1;exitDx=0;exitDy=0;entryX=0.5;entryY=0;entryDx=0;entryDy=0;" parent="1" source="9PRktrJ7VXsiMUp-jzfl-12" target="9PRktrJ7VXsiMUp-jzfl-13" edge="1">
          <mxGeometry width="50" height="50" relative="1" as="geometry">
            <mxPoint x="270" y="690" as="sourcePoint" />
            <mxPoint x="320" y="640" as="targetPoint" />
          </mxGeometry>
        </mxCell>
        <mxCell id="9PRktrJ7VXsiMUp-jzfl-15" value="НЕ" style="text;html=1;strokeColor=none;fillColor=none;align=center;verticalAlign=middle;whiteSpace=wrap;rounded=0;" parent="1" vertex="1">
          <mxGeometry x="231" y="570" width="60" height="30" as="geometry" />
        </mxCell>
        <mxCell id="9PRktrJ7VXsiMUp-jzfl-16" value="ДА" style="text;html=1;strokeColor=none;fillColor=none;align=center;verticalAlign=middle;whiteSpace=wrap;rounded=0;" parent="1" vertex="1">
          <mxGeometry x="340" y="650" width="60" height="30" as="geometry" />
        </mxCell>
        <mxCell id="9PRktrJ7VXsiMUp-jzfl-17" value="" style="endArrow=classic;html=1;rounded=0;exitX=0.5;exitY=1;exitDx=0;exitDy=0;entryX=0.5;entryY=0;entryDx=0;entryDy=0;" parent="1" source="9PRktrJ7VXsiMUp-jzfl-5" target="9PRktrJ7VXsiMUp-jzfl-10" edge="1">
          <mxGeometry width="50" height="50" relative="1" as="geometry">
            <mxPoint x="190" y="560" as="sourcePoint" />
            <mxPoint x="240" y="510" as="targetPoint" />
          </mxGeometry>
        </mxCell>
        <mxCell id="9PRktrJ7VXsiMUp-jzfl-18" value="" style="endArrow=classic;html=1;rounded=0;" parent="1" edge="1">
          <mxGeometry width="50" height="50" relative="1" as="geometry">
            <mxPoint x="290" y="610" as="sourcePoint" />
            <mxPoint x="80" y="1410" as="targetPoint" />
            <Array as="points">
              <mxPoint x="80" y="610" />
            </Array>
          </mxGeometry>
        </mxCell>
        <mxCell id="9PRktrJ7VXsiMUp-jzfl-19" value="Задава се стойността на c" style="shape=parallelogram;perimeter=parallelogramPerimeter;whiteSpace=wrap;html=1;fixedSize=1;" parent="1" vertex="1">
          <mxGeometry x="307.5" y="800" width="185" height="30" as="geometry" />
        </mxCell>
        <mxCell id="9PRktrJ7VXsiMUp-jzfl-20" value="" style="endArrow=classic;html=1;rounded=0;exitX=0.5;exitY=1;exitDx=0;exitDy=0;entryX=0.5;entryY=0;entryDx=0;entryDy=0;" parent="1" source="9PRktrJ7VXsiMUp-jzfl-19" target="9PRktrJ7VXsiMUp-jzfl-21" edge="1">
          <mxGeometry width="50" height="50" relative="1" as="geometry">
            <mxPoint x="400" y="920" as="sourcePoint" />
            <mxPoint x="450" y="870" as="targetPoint" />
          </mxGeometry>
        </mxCell>
        <mxCell id="9PRktrJ7VXsiMUp-jzfl-21" value="&lt;span style=&quot;color: rgb(0, 0, 0); font-family: Helvetica; font-size: 12px; font-style: normal; font-variant-ligatures: normal; font-variant-caps: normal; font-weight: 400; letter-spacing: normal; orphans: 2; text-align: center; text-indent: 0px; text-transform: none; widows: 2; word-spacing: 0px; -webkit-text-stroke-width: 0px; background-color: rgb(251, 251, 251); text-decoration-thickness: initial; text-decoration-style: initial; text-decoration-color: initial; float: none; display: inline !important;&quot;&gt;segashnaStoinostNaStranite &amp;lt; 15&lt;/span&gt;" style="rhombus;whiteSpace=wrap;html=1;" parent="1" vertex="1">
          <mxGeometry x="291.25" y="860" width="217.5" height="80" as="geometry" />
        </mxCell>
        <mxCell id="9PRktrJ7VXsiMUp-jzfl-22" value="&lt;div style=&quot;margin: 0px; padding: 0px; user-select: text; -webkit-user-drag: none; -webkit-tap-highlight-color: transparent; overflow: visible; cursor: text; clear: both; position: relative; direction: ltr; background-color: rgb(255, 255, 255);&quot; class=&quot;OutlineElement Ltr SCXW58210390 BCX0&quot;&gt;&lt;p style=&quot;margin: 0px 0px 10.6667px; padding: 0px; user-select: text; -webkit-user-drag: none; -webkit-tap-highlight-color: transparent; overflow-wrap: break-word; vertical-align: baseline; font-kerning: none; background-color: transparent; color: windowtext;&quot; class=&quot;Paragraph SCXW58210390 BCX0&quot;&gt;&lt;span style=&quot;font-family: Helvetica; background-color: rgb(251, 251, 251);&quot;&gt;masivZaStraniteNaTriygylnitsite[segashnaStoinostZaStranite&lt;/span&gt;&lt;span style=&quot;background-color: rgb(251, 251, 251);&quot;&gt;&lt;font face=&quot;Segoe UI, Segoe UI Web, Arial, Verdana, sans-serif&quot;&gt;] = c;&lt;/font&gt;&lt;/span&gt;&lt;/p&gt;&lt;p style=&quot;margin: 0px 0px 10.6667px; padding: 0px; user-select: text; -webkit-user-drag: none; -webkit-tap-highlight-color: transparent; overflow-wrap: break-word; vertical-align: baseline; font-kerning: none; background-color: transparent; color: windowtext;&quot; class=&quot;Paragraph SCXW58210390 BCX0&quot;&gt;&lt;span style=&quot;background-color: rgb(251, 251, 251);&quot;&gt;&lt;font face=&quot;Segoe UI, Segoe UI Web, Arial, Verdana, sans-serif&quot;&gt;segashnaStoinostZaStranite++;&lt;/font&gt;&lt;/span&gt;&lt;/p&gt;&lt;/div&gt;" style="rounded=0;whiteSpace=wrap;html=1;align=center;" parent="1" vertex="1">
          <mxGeometry x="220" y="970" width="360" height="70" as="geometry" />
        </mxCell>
        <mxCell id="9PRktrJ7VXsiMUp-jzfl-23" value="" style="endArrow=classic;html=1;rounded=0;exitX=0.5;exitY=1;exitDx=0;exitDy=0;entryX=0.5;entryY=0;entryDx=0;entryDy=0;" parent="1" source="9PRktrJ7VXsiMUp-jzfl-21" target="9PRktrJ7VXsiMUp-jzfl-22" edge="1">
          <mxGeometry width="50" height="50" relative="1" as="geometry">
            <mxPoint x="270" y="980" as="sourcePoint" />
            <mxPoint x="320" y="930" as="targetPoint" />
          </mxGeometry>
        </mxCell>
        <mxCell id="9PRktrJ7VXsiMUp-jzfl-24" value="НЕ" style="text;html=1;strokeColor=none;fillColor=none;align=center;verticalAlign=middle;whiteSpace=wrap;rounded=0;" parent="1" vertex="1">
          <mxGeometry x="231" y="860" width="60" height="30" as="geometry" />
        </mxCell>
        <mxCell id="9PRktrJ7VXsiMUp-jzfl-25" value="ДА" style="text;html=1;strokeColor=none;fillColor=none;align=center;verticalAlign=middle;whiteSpace=wrap;rounded=0;" parent="1" vertex="1">
          <mxGeometry x="340" y="940" width="60" height="30" as="geometry" />
        </mxCell>
        <mxCell id="9PRktrJ7VXsiMUp-jzfl-26" value="" style="endArrow=classic;html=1;rounded=0;" parent="1" edge="1">
          <mxGeometry width="50" height="50" relative="1" as="geometry">
            <mxPoint x="290" y="900" as="sourcePoint" />
            <mxPoint x="120" y="1410" as="targetPoint" />
            <Array as="points">
              <mxPoint x="120" y="900" />
            </Array>
          </mxGeometry>
        </mxCell>
        <mxCell id="9PRktrJ7VXsiMUp-jzfl-27" value="" style="endArrow=classic;html=1;rounded=0;exitX=0.5;exitY=1;exitDx=0;exitDy=0;entryX=0.5;entryY=0;entryDx=0;entryDy=0;" parent="1" source="9PRktrJ7VXsiMUp-jzfl-13" target="9PRktrJ7VXsiMUp-jzfl-19" edge="1">
          <mxGeometry width="50" height="50" relative="1" as="geometry">
            <mxPoint x="220" y="850" as="sourcePoint" />
            <mxPoint x="270" y="800" as="targetPoint" />
          </mxGeometry>
        </mxCell>
        <mxCell id="73DG5HK3S0cVeyQOT0Hi-1" value="" style="endArrow=classic;html=1;rounded=0;exitX=0.5;exitY=1;exitDx=0;exitDy=0;entryX=0.5;entryY=0;entryDx=0;entryDy=0;" edge="1" parent="1" source="9PRktrJ7VXsiMUp-jzfl-22" target="ye3rihrd_y2qjC_iB_pz-1">
          <mxGeometry width="50" height="50" relative="1" as="geometry">
            <mxPoint x="390" y="1170" as="sourcePoint" />
            <mxPoint x="400" y="1090" as="targetPoint" />
          </mxGeometry>
        </mxCell>
        <mxCell id="ye3rihrd_y2qjC_iB_pz-1" value="Дефиниция на функцията&lt;br&gt;LitseNaTriygylnik(int strA, int strB, int strC)" style="shape=parallelogram;perimeter=parallelogramPerimeter;whiteSpace=wrap;html=1;fixedSize=1;" vertex="1" parent="1">
          <mxGeometry x="272.5" y="1070" width="255" height="50" as="geometry" />
        </mxCell>
        <mxCell id="ye3rihrd_y2qjC_iB_pz-2" value="" style="endArrow=classic;html=1;rounded=0;exitX=0.5;exitY=1;exitDx=0;exitDy=0;entryX=0.5;entryY=0;entryDx=0;entryDy=0;" edge="1" parent="1" source="ye3rihrd_y2qjC_iB_pz-1" target="ye3rihrd_y2qjC_iB_pz-3">
          <mxGeometry width="50" height="50" relative="1" as="geometry">
            <mxPoint x="390" y="1160" as="sourcePoint" />
            <mxPoint x="400" y="1180" as="targetPoint" />
          </mxGeometry>
        </mxCell>
        <mxCell id="ye3rihrd_y2qjC_iB_pz-3" value="int p = (strA + strB + strC) / 2&lt;br&gt;int S = sqrt(p * (p * strA) * (p * strB) * (p * strC))" style="rounded=0;whiteSpace=wrap;html=1;" vertex="1" parent="1">
          <mxGeometry x="272.5" y="1150" width="255" height="41" as="geometry" />
        </mxCell>
        <mxCell id="ye3rihrd_y2qjC_iB_pz-4" value="multiply = LitseNaTriygylnik(a, b, c)" style="rounded=0;whiteSpace=wrap;html=1;" vertex="1" parent="1">
          <mxGeometry x="307.5" y="1220" width="190" height="30" as="geometry" />
        </mxCell>
        <mxCell id="ye3rihrd_y2qjC_iB_pz-5" value="" style="endArrow=classic;html=1;rounded=0;exitX=0.5;exitY=1;exitDx=0;exitDy=0;" edge="1" parent="1" source="ye3rihrd_y2qjC_iB_pz-3" target="ye3rihrd_y2qjC_iB_pz-4">
          <mxGeometry width="50" height="50" relative="1" as="geometry">
            <mxPoint x="390" y="1160" as="sourcePoint" />
            <mxPoint x="440" y="1110" as="targetPoint" />
          </mxGeometry>
        </mxCell>
        <mxCell id="ye3rihrd_y2qjC_iB_pz-6" value="segashaStoinost &amp;lt; 5" style="rhombus;whiteSpace=wrap;html=1;" vertex="1" parent="1">
          <mxGeometry x="298.12" y="1280" width="208.75" height="80" as="geometry" />
        </mxCell>
        <mxCell id="ye3rihrd_y2qjC_iB_pz-7" value="" style="endArrow=classic;html=1;rounded=0;exitX=0.5;exitY=1;exitDx=0;exitDy=0;entryX=0.5;entryY=0;entryDx=0;entryDy=0;" edge="1" parent="1" source="ye3rihrd_y2qjC_iB_pz-4" target="ye3rihrd_y2qjC_iB_pz-6">
          <mxGeometry width="50" height="50" relative="1" as="geometry">
            <mxPoint x="150" y="1350" as="sourcePoint" />
            <mxPoint x="200" y="1300" as="targetPoint" />
          </mxGeometry>
        </mxCell>
        <mxCell id="ye3rihrd_y2qjC_iB_pz-8" value="" style="endArrow=classic;html=1;rounded=0;exitX=0;exitY=0.5;exitDx=0;exitDy=0;" edge="1" parent="1" source="ye3rihrd_y2qjC_iB_pz-6">
          <mxGeometry width="50" height="50" relative="1" as="geometry">
            <mxPoint x="380" y="1400" as="sourcePoint" />
            <mxPoint x="160" y="1410" as="targetPoint" />
            <Array as="points">
              <mxPoint x="160" y="1320" />
            </Array>
          </mxGeometry>
        </mxCell>
        <mxCell id="ye3rihrd_y2qjC_iB_pz-9" value="НЕ" style="text;html=1;strokeColor=none;fillColor=none;align=center;verticalAlign=middle;whiteSpace=wrap;rounded=0;" vertex="1" parent="1">
          <mxGeometry x="247.5" y="1280" width="60" height="30" as="geometry" />
        </mxCell>
        <mxCell id="ye3rihrd_y2qjC_iB_pz-10" value="masivZaLitsa[segashaStoinost] = multiply;&lt;br&gt;segashnaStoinost++;" style="rounded=0;whiteSpace=wrap;html=1;" vertex="1" parent="1">
          <mxGeometry x="287.49" y="1390" width="230" height="50" as="geometry" />
        </mxCell>
        <mxCell id="ye3rihrd_y2qjC_iB_pz-11" value="" style="endArrow=classic;html=1;rounded=0;exitX=0.5;exitY=1;exitDx=0;exitDy=0;entryX=0.5;entryY=0;entryDx=0;entryDy=0;" edge="1" parent="1" source="ye3rihrd_y2qjC_iB_pz-6" target="ye3rihrd_y2qjC_iB_pz-10">
          <mxGeometry width="50" height="50" relative="1" as="geometry">
            <mxPoint x="210" y="1550" as="sourcePoint" />
            <mxPoint x="260" y="1500" as="targetPoint" />
          </mxGeometry>
        </mxCell>
        <mxCell id="ye3rihrd_y2qjC_iB_pz-12" value="ДА" style="text;html=1;strokeColor=none;fillColor=none;align=center;verticalAlign=middle;whiteSpace=wrap;rounded=0;" vertex="1" parent="1">
          <mxGeometry x="340" y="1360" width="60" height="30" as="geometry" />
        </mxCell>
        <mxCell id="ye3rihrd_y2qjC_iB_pz-13" value="while&lt;br&gt;daIline != &#39;n&#39; &amp;amp;&amp;amp; daIline != &#39;N&#39;&lt;br&gt;." style="rhombus;whiteSpace=wrap;html=1;" vertex="1" parent="1">
          <mxGeometry x="294" y="1470" width="217" height="80" as="geometry" />
        </mxCell>
        <mxCell id="ye3rihrd_y2qjC_iB_pz-14" value="" style="endArrow=classic;html=1;rounded=0;exitX=0.5;exitY=1;exitDx=0;exitDy=0;entryX=0.5;entryY=0;entryDx=0;entryDy=0;" edge="1" parent="1" source="ye3rihrd_y2qjC_iB_pz-10" target="ye3rihrd_y2qjC_iB_pz-13">
          <mxGeometry width="50" height="50" relative="1" as="geometry">
            <mxPoint x="160" y="1530" as="sourcePoint" />
            <mxPoint x="210" y="1480" as="targetPoint" />
          </mxGeometry>
        </mxCell>
        <mxCell id="ye3rihrd_y2qjC_iB_pz-16" value="" style="endArrow=classic;html=1;rounded=0;exitX=1;exitY=0.5;exitDx=0;exitDy=0;" edge="1" parent="1" source="ye3rihrd_y2qjC_iB_pz-13">
          <mxGeometry width="50" height="50" relative="1" as="geometry">
            <mxPoint x="520" y="1510" as="sourcePoint" />
            <mxPoint x="400" y="200" as="targetPoint" />
            <Array as="points">
              <mxPoint x="680" y="1510" />
              <mxPoint x="680" y="200" />
            </Array>
          </mxGeometry>
        </mxCell>
        <mxCell id="ye3rihrd_y2qjC_iB_pz-17" value="НЕ" style="text;html=1;strokeColor=none;fillColor=none;align=center;verticalAlign=middle;whiteSpace=wrap;rounded=0;" vertex="1" parent="1">
          <mxGeometry x="507" y="1470" width="60" height="30" as="geometry" />
        </mxCell>
      </root>
    </mxGraphModel>
  </diagram>
</mxfile>
